<svg version="1.1" xmlns="http://www.w3.org/2000/svg" viewBox="0 0 842.5 545.5" width="842.5" height="545.5">
    <metadata></metadata>
    <defs>
        <style class="style-fonts"></style>
    </defs>
    <g transform="translate(65.5 53) rotate(0 71.75 98.25)" stroke="none">
        <path fill="#636363" d="M 7.27,6.75 Q 7.27,6.75 5.56,8.89 3.85,11.02 1.48,16.33 -0.88,21.65 -2.06,27.62 -3.24,33.60 -5.25,38.40 -7.25,43.20 -9.65,48.95 -12.05,54.71 -10.65,59.85 -9.26,64.99 -10.43,70.83 -11.60,76.68 -12.58,81.04 -13.56,85.41 -13.39,90.15 -13.21,94.90 -13.21,100.05 -13.20,105.19 -13.23,109.56 -13.25,113.93 -13.26,119.63 -13.26,125.33 -13.22,130.55 -13.18,135.76 -13.16,141.00 -13.15,146.24 -11.11,150.36 -9.07,154.48 -7.16,158.53 -5.24,162.57 -2.41,167.34 0.41,172.11 2.80,177.05 5.18,182.00 7.76,186.79 10.33,191.57 13.74,194.56 17.15,197.56 21.10,201.02 25.04,204.47 29.23,206.18 33.42,207.89 37.78,209.73 42.13,211.57 47.48,211.20 52.82,210.82 57.97,210.82 63.11,210.81 68.30,210.79 73.48,210.77 78.43,210.77 83.38,210.76 87.66,208.96 91.94,207.17 97.10,205.56 102.27,203.96 106.22,202.39 110.18,200.82 115.04,198.43 119.89,196.03 123.64,193.65 127.38,191.26 131.19,187.88 134.99,184.50 137.77,180.56 140.55,176.63 143.69,171.73 146.84,166.84 147.17,161.73 147.50,156.62 147.50,151.81 147.50,147.01 147.48,142.27 147.47,137.54 148.64,131.60 149.82,125.66 151.25,118.74 152.68,111.83 153.45,106.74 154.23,101.66 154.73,97.24 155.23,92.81 155.90,87.37 156.56,81.92 156.36,77.00 156.15,72.08 156.13,67.71 156.11,63.34 158.52,67.42 160.94,71.49 157.95,67.47 154.96,63.46 153.14,58.76 151.32,54.06 149.00,50.34 146.69,46.63 145.15,41.94 143.61,37.25 146.28,41.37 148.95,45.50 145.09,40.41 141.22,35.32 138.32,30.87 135.42,26.42 132.99,21.64 130.57,16.87 126.74,10.44 122.91,4.02 119.66,0.42 116.40,-3.18 112.45,-5.72 108.49,-8.26 102.14,-9.50 95.79,-10.74 91.19,-11.41 86.59,-12.08 81.03,-13.25 75.47,-14.41 70.59,-14.24 65.71,-14.08 61.39,-14.07 57.07,-14.06 52.18,-13.80 47.30,-13.55 43.05,-13.38 38.80,-13.22 34.16,-12.15 29.51,-11.09 25.10,-8.40 20.68,-5.71 19.75,-1.26 18.82,3.17 14.29,7.52 9.76,11.87 7.61,13.12 5.45,14.37 3.02,14.87 0.58,15.36 -1.88,15.05 -4.35,14.74 -6.59,13.66 -8.83,12.58 -10.61,10.84 -12.39,9.10 -13.52,6.88 -14.64,4.67 -15.01,2.21 -15.37,-0.25 -14.93,-2.69 -14.49,-5.14 -13.28,-7.32 -12.08,-9.50 -10.25,-11.18 -8.42,-12.86 -6.14,-13.87 -3.87,-14.88 -1.39,-15.11 1.08,-15.33 3.50,-14.76 5.92,-14.19 8.03,-12.87 10.14,-11.55 11.72,-9.63 13.30,-7.71 14.18,-5.38 15.06,-3.05 15.16,-0.57 15.25,1.91 14.55,4.29 13.84,6.68 12.41,8.72 10.98,10.75 8.98,12.22 6.97,13.70 4.60,14.45 2.23,15.21 -0.24,15.17 -2.73,15.13 -5.08,14.29 -7.42,13.46 -9.38,11.92 -11.33,10.38 -12.69,8.30 -14.06,6.22 -14.68,3.81 -15.31,1.41 -15.13,-1.07 -14.96,-3.55 -14.00,-5.84 -13.04,-8.14 -11.40,-10.01 -9.76,-11.88 -9.76,-11.88 -9.76,-11.87 -7.94,-13.72 -6.11,-15.57 -3.15,-20.80 -0.20,-26.03 2.88,-30.35 5.96,-34.67 10.64,-37.20 15.31,-39.73 20.35,-39.72 25.40,-39.71 32.72,-42.09 40.05,-44.46 44.91,-44.48 49.78,-44.50 54.84,-44.71 59.90,-44.92 65.06,-44.91 70.22,-44.91 75.17,-44.74 80.12,-44.57 84.48,-43.72 88.85,-42.87 93.54,-42.57 98.23,-42.27 104.21,-41.07 110.19,-39.88 114.61,-38.58 119.03,-37.29 124.33,-34.08 129.62,-30.87 133.38,-28.07 137.14,-25.26 140.73,-21.16 144.33,-17.06 147.24,-13.19 150.15,-9.33 152.78,-4.99 155.40,-0.64 157.52,3.66 159.63,7.98 162.48,13.63 165.33,19.29 169.06,24.74 172.78,30.19 174.96,34.13 177.14,38.07 178.61,42.69 180.08,47.32 182.55,50.99 185.02,54.66 185.95,59.57 186.87,64.49 186.85,69.37 186.83,74.26 186.77,79.24 186.70,84.22 186.17,88.70 185.64,93.18 185.18,97.57 184.72,101.96 184.54,106.87 184.35,111.78 182.51,118.12 180.66,124.46 179.03,129.58 177.40,134.70 177.44,139.12 177.48,143.55 177.49,148.61 177.49,153.68 177.46,158.38 177.44,163.07 176.93,168.41 176.43,173.74 174.36,177.96 172.29,182.17 169.80,185.96 167.32,189.75 164.53,193.68 161.74,197.60 158.00,202.78 154.26,207.95 150.97,210.77 147.67,213.59 143.71,216.31 139.74,219.03 135.39,221.56 131.04,224.09 126.08,226.51 121.13,228.92 116.66,230.66 112.19,232.40 108.12,233.73 104.04,235.06 99.28,237.23 94.52,239.40 86.63,240.31 78.74,241.22 73.36,241.20 67.98,241.19 62.97,241.18 57.97,241.17 52.95,241.16 47.93,241.15 43.03,241.01 38.13,240.87 33.86,239.89 29.59,238.91 25.55,237.11 21.51,235.30 16.93,232.26 12.35,229.22 8.40,226.80 4.45,224.37 0.92,221.75 -2.59,219.13 -6.84,215.19 -11.08,211.26 -13.93,206.90 -16.78,202.53 -19.67,196.58 -22.57,190.63 -24.78,186.64 -26.99,182.64 -30.78,176.48 -34.58,170.32 -37.14,163.92 -39.70,157.52 -41.27,152.24 -42.84,146.95 -42.84,142.29 -42.83,137.62 -42.80,132.53 -42.76,127.44 -42.74,122.72 -42.73,117.99 -42.75,113.55 -42.78,109.10 -42.78,103.61 -42.78,98.11 -42.74,93.02 -42.69,87.94 -42.05,83.07 -41.42,78.19 -40.53,73.75 -39.63,69.31 -38.62,64.77 -37.61,60.23 -36.95,56.00 -36.30,51.78 -34.29,46.03 -32.29,40.27 -31.24,36.10 -30.20,31.94 -27.57,27.16 -24.94,22.38 -23.10,18.26 -21.26,14.14 -19.06,8.99 -16.85,3.84 -14.09,0.43 -11.33,-2.97 -9.30,-4.86 -7.27,-6.75 -6.36,-7.53 -5.45,-8.30 -4.37,-8.83 -3.30,-9.36 -2.13,-9.62 -0.96,-9.88 0.23,-9.85 1.42,-9.83 2.58,-9.51 3.73,-9.20 4.78,-8.62 5.83,-8.04 6.71,-7.22 7.58,-6.41 8.24,-5.41 8.90,-4.40 9.30,-3.27 9.69,-2.15 9.81,-0.95 9.93,0.23 9.75,1.41 9.58,2.60 9.13,3.71 8.68,4.82 7.98,5.79 7.27,6.76 7.27,6.76 L 7.27,6.75 Z"></path>
    </g>
    <g transform="translate(308 15) rotate(0 -29.75 136.25)" stroke="none">
        <path fill="#636363" d="M 10.39,1.92 Q 10.39,1.92 9.80,5.82 9.20,9.73 9.13,14.28 9.06,18.83 8.44,24.42 7.82,30.01 7.28,35.06 6.74,40.11 5.93,44.68 5.12,49.25 3.98,54.96 2.84,60.67 2.08,65.55 1.31,70.42 0.19,74.96 -0.92,79.50 -1.96,84.67 -3.00,89.85 -4.16,94.26 -5.32,98.66 -6.27,103.10 -7.23,107.54 -7.94,113.43 -8.64,119.32 -10.06,125.83 -11.47,132.35 -12.63,136.52 -13.79,140.69 -16.01,147.00 -18.23,153.31 -19.81,157.33 -21.38,161.34 -24.17,168.12 -26.95,174.91 -28.17,179.41 -29.39,183.91 -30.71,188.19 -32.03,192.47 -32.41,197.05 -32.79,201.63 -33.28,207.63 -33.78,213.63 -33.75,218.12 -33.72,222.60 -33.67,226.89 -33.63,231.18 -35.22,236.16 -36.82,241.14 -38.05,248.11 -39.27,255.07 -40.94,261.74 -42.61,268.41 -44.72,273.19 -46.83,277.97 -46.09,277.37 -45.36,276.77 -46.19,278.37 -47.02,279.97 -48.21,281.32 -49.41,282.67 -50.89,283.70 -52.37,284.73 -54.05,285.38 -55.74,286.02 -57.53,286.24 -59.32,286.47 -61.11,286.25 -62.90,286.04 -64.59,285.41 -66.28,284.77 -67.76,283.75 -69.25,282.73 -70.45,281.39 -71.65,280.04 -72.49,278.45 -73.34,276.85 -73.77,275.10 -74.21,273.35 -74.22,271.55 -74.22,269.74 -73.79,267.99 -73.37,266.24 -68.37,262.68 -63.37,259.13 -62.53,254.30 -61.70,249.46 -60.59,247.66 -59.48,245.86 -57.94,244.06 -56.39,242.27 -54.35,241.06 -52.32,239.86 -50.00,239.37 -47.68,238.87 -45.33,239.15 -42.98,239.42 -40.84,240.43 -38.69,241.44 -36.99,243.08 -35.28,244.72 -34.18,246.82 -33.09,248.92 -32.72,251.26 -32.36,253.60 -32.76,255.94 -33.16,258.27 -34.28,260.35 -35.41,262.44 -37.14,264.05 -38.87,265.67 -41.03,266.65 -43.18,267.63 -45.54,267.87 -47.89,268.11 -50.20,267.58 -52.51,267.05 -54.53,265.82 -56.55,264.58 -58.07,262.77 -59.59,260.95 -60.45,258.74 -61.31,256.54 -61.42,254.17 -61.53,251.81 -60.88,249.53 -60.23,247.25 -58.89,245.30 -57.55,243.35 -55.65,241.93 -53.76,240.51 -51.51,239.77 -49.26,239.03 -46.89,239.05 -44.52,239.07 -42.28,239.84 -40.04,240.61 -38.17,242.06 -36.29,243.51 -34.98,245.48 -33.66,247.45 -33.05,249.73 -32.43,252.02 -32.58,254.38 -32.72,256.75 -33.62,258.94 -34.51,261.13 -34.51,261.13 -34.51,261.13 -35.61,262.94 -36.70,264.74 -40.19,270.74 -43.67,276.73 -48.44,280.30 -53.20,283.87 -49.28,280.32 -45.36,276.77 -46.19,278.37 -47.02,279.97 -48.21,281.32 -49.41,282.67 -50.89,283.70 -52.37,284.73 -54.05,285.38 -55.74,286.02 -57.53,286.24 -59.32,286.47 -61.11,286.26 -62.90,286.04 -64.59,285.41 -66.28,284.77 -67.76,283.75 -69.25,282.73 -70.45,281.39 -71.65,280.04 -72.49,278.45 -73.34,276.85 -73.77,275.10 -74.21,273.35 -74.22,271.55 -74.22,269.74 -73.80,267.99 -73.37,266.24 -73.28,265.61 -73.19,264.99 -70.92,260.28 -68.65,255.57 -67.73,250.69 -66.81,245.82 -65.90,240.71 -64.99,235.60 -63.67,231.18 -62.34,226.75 -62.23,221.84 -62.12,216.92 -61.99,212.38 -61.85,207.84 -61.31,203.56 -60.78,199.28 -59.97,193.47 -59.15,187.66 -57.43,182.04 -55.70,176.42 -53.98,170.56 -52.25,164.70 -49.82,158.33 -47.39,151.96 -45.12,145.08 -42.85,138.21 -41.35,132.96 -39.86,127.71 -38.31,122.75 -36.76,117.79 -35.96,112.43 -35.15,107.06 -33.90,100.38 -32.65,93.70 -31.10,87.39 -29.55,81.08 -28.37,76.77 -27.19,72.47 -25.58,66.47 -23.97,60.47 -22.63,55.56 -21.30,50.65 -20.10,45.42 -18.90,40.19 -17.65,34.88 -16.41,29.56 -15.04,23.53 -13.68,17.49 -12.88,11.64 -12.08,5.79 -11.23,1.93 -10.39,-1.92 -10.01,-3.14 -9.63,-4.35 -8.97,-5.44 -8.31,-6.53 -7.40,-7.43 -6.50,-8.33 -5.41,-8.99 -4.32,-9.65 -3.10,-10.02 -1.88,-10.40 -0.61,-10.47 0.65,-10.55 1.91,-10.32 3.16,-10.09 4.32,-9.56 5.48,-9.03 6.49,-8.25 7.49,-7.46 8.27,-6.45 9.06,-5.45 9.58,-4.28 10.10,-3.12 10.32,-1.87 10.55,-0.61 10.47,0.65 10.39,1.92 10.39,1.92 L 10.39,1.92 Z"></path>
    </g>
    <g transform="translate(314 14) rotate(0 117.5 137)" stroke="none">
        <path fill="#636363" d="M 10.07,-0.91 Q 10.07,-0.91 10.54,2.23 11.01,5.37 11.58,9.65 12.14,13.92 12.35,19.45 12.55,24.98 13.10,29.77 13.66,34.56 14.58,39.18 15.50,43.80 17.21,49.07 18.91,54.34 20.28,58.54 21.66,62.74 23.42,69.16 25.19,75.59 26.36,83.67 27.53,91.76 28.64,96.80 29.76,101.84 31.56,108.81 33.35,115.77 34.70,121.36 36.04,126.95 38.21,132.62 40.38,138.28 42.02,142.34 43.66,146.39 45.55,153.10 47.44,159.81 48.80,165.34 50.15,170.88 52.67,178.37 55.18,185.85 57.50,191.06 59.82,196.28 62.45,201.49 65.09,206.70 67.79,212.32 70.49,217.93 73.78,223.88 77.06,229.84 79.75,235.86 82.43,241.88 85.01,247.90 87.58,253.92 89.94,259.78 92.30,265.65 85.01,263.80 77.73,261.96 76.74,256.34 75.76,250.72 79.22,244.93 82.67,239.14 85.04,234.55 87.42,229.96 89.30,225.44 91.18,220.93 93.58,215.11 95.97,209.28 99.05,200.81 102.12,192.34 103.76,187.34 105.41,182.33 108.33,175.68 111.26,169.03 114.31,162.37 117.36,155.70 120.44,148.98 123.53,142.27 125.92,136.44 128.32,130.62 129.90,125.44 131.49,120.26 133.41,114.90 135.33,109.55 137.27,104.33 139.21,99.12 141.19,93.69 143.17,88.26 145.24,82.25 147.31,76.24 148.41,71.94 149.51,67.65 151.06,63.18 152.61,58.72 154.37,52.04 156.13,45.36 157.18,40.60 158.22,35.85 159.37,30.82 160.53,25.79 160.06,20.97 159.59,16.16 168.94,13.62 178.29,11.07 179.10,15.99 179.91,20.91 180.04,26.18 180.18,31.44 180.76,35.83 181.35,40.22 181.99,44.59 182.63,48.97 183.49,54.02 184.35,59.08 185.59,63.82 186.83,68.57 187.09,73.62 187.34,78.67 187.74,83.10 188.14,87.54 188.97,92.85 189.81,98.16 191.79,104.39 193.76,110.62 194.86,115.55 195.96,120.47 198.12,128.53 200.28,136.58 201.66,141.71 203.05,146.84 204.45,151.99 205.86,157.15 207.73,163.22 209.59,169.30 211.18,174.13 212.76,178.95 214.09,184.08 215.42,189.21 217.08,193.15 218.73,197.08 220.67,200.88 222.60,204.68 224.86,209.25 227.11,213.82 229.38,217.42 231.65,221.02 234.70,225.37 237.74,229.73 240.59,233.91 243.44,238.09 245.33,241.01 247.22,243.92 247.90,245.57 248.57,247.22 248.83,248.98 249.09,250.74 248.92,252.52 248.75,254.29 248.17,255.97 247.58,257.65 246.60,259.14 245.63,260.64 244.33,261.85 243.03,263.07 241.47,263.93 239.91,264.80 238.20,265.27 236.48,265.74 234.70,265.79 232.92,265.83 231.18,265.45 229.44,265.07 227.84,264.28 226.24,263.50 224.88,262.35 223.52,261.20 222.47,259.76 221.42,258.32 221.01,251.92 220.61,245.52 220.43,245.39 220.25,245.25 220.83,242.93 221.42,240.61 222.71,238.60 224.01,236.58 225.88,235.09 227.75,233.59 230.00,232.77 232.25,231.95 234.64,231.89 237.03,231.84 239.32,232.55 241.61,233.25 243.55,234.66 245.49,236.06 246.88,238.01 248.27,239.96 248.97,242.25 249.66,244.54 249.59,246.93 249.52,249.32 248.69,251.57 247.86,253.81 246.35,255.68 244.85,257.54 242.83,258.82 240.80,260.11 238.48,260.68 236.15,261.25 233.77,261.05 231.38,260.85 229.19,259.89 226.99,258.94 225.21,257.34 223.43,255.73 222.26,253.65 221.09,251.56 220.64,249.21 220.20,246.85 220.53,244.48 220.86,242.11 221.93,239.97 223.00,237.83 224.70,236.14 226.40,234.45 228.54,233.39 230.69,232.33 233.07,232.02 235.44,231.70 237.79,232.16 240.14,232.62 242.22,233.80 244.30,234.99 245.89,236.77 247.49,238.56 248.43,240.76 249.37,242.97 249.56,245.35 249.74,247.74 249.74,247.74 249.74,247.74 249.28,251.01 248.81,254.28 248.02,249.10 247.22,243.92 247.90,245.57 248.57,247.22 248.83,248.98 249.09,250.74 248.92,252.52 248.76,254.29 248.17,255.97 247.58,257.65 246.60,259.14 245.63,260.63 244.33,261.85 243.03,263.06 241.47,263.93 239.92,264.80 238.20,265.27 236.48,265.74 234.70,265.79 232.92,265.83 231.18,265.45 229.44,265.07 227.84,264.28 226.24,263.50 224.88,262.35 223.52,261.20 222.47,259.77 221.42,258.33 220.70,256.92 219.99,255.52 217.72,251.36 215.45,247.20 212.45,243.23 209.45,239.26 206.66,235.14 203.88,231.03 201.11,225.43 198.34,219.84 195.82,215.06 193.29,210.27 190.69,204.32 188.09,198.38 186.50,192.81 184.90,187.24 183.26,182.51 181.61,177.77 180.23,173.42 178.86,169.08 177.82,164.94 176.78,160.80 174.57,153.68 172.37,146.55 170.67,139.43 168.98,132.31 167.16,126.06 165.34,119.81 163.61,115.43 161.87,111.04 161.53,106.68 161.19,102.33 159.86,97.07 158.54,91.81 158.08,86.84 157.61,81.87 157.37,76.31 157.12,70.74 156.20,66.57 155.27,62.40 154.33,56.76 153.40,51.12 153.06,45.18 152.72,39.24 152.29,34.28 151.87,29.33 151.98,25.08 152.10,20.82 152.33,15.60 152.57,10.38 154.01,6.27 155.45,2.17 165.83,-0.22 176.20,-2.62 179.41,1.32 182.62,5.27 184.01,10.75 185.39,16.24 185.08,21.08 184.76,25.91 183.14,31.13 181.52,36.35 180.15,41.06 178.79,45.77 176.75,52.04 174.71,58.32 171.71,65.79 168.71,73.26 167.25,77.71 165.80,82.15 163.89,88.58 161.97,95.01 160.00,100.60 158.03,106.18 156.08,111.32 154.14,116.46 152.32,121.27 150.50,126.08 148.71,131.95 146.91,137.82 144.73,143.80 142.55,149.78 140.28,156.63 138.00,163.49 135.90,170.48 133.79,177.48 132.03,183.36 130.26,189.24 128.97,194.77 127.69,200.30 125.11,209.97 122.52,219.65 120.38,225.32 118.23,231.00 116.47,235.26 114.70,239.52 112.12,244.95 109.53,250.39 106.92,254.43 104.31,258.47 101.92,264.49 99.53,270.51 98.06,274.96 96.59,279.42 92.52,282.00 88.46,284.58 80.30,283.99 72.14,283.40 68.77,278.32 65.39,273.24 63.03,268.52 60.67,263.80 58.91,258.81 57.16,253.82 53.97,247.12 50.79,240.43 48.98,236.20 47.17,231.98 44.71,226.98 42.25,221.99 40.47,217.88 38.69,213.78 35.63,207.87 32.57,201.97 29.76,194.79 26.95,187.61 24.21,179.71 21.46,171.82 20.20,166.58 18.93,161.35 17.38,157.18 15.84,153.01 13.50,146.46 11.15,139.92 9.44,134.32 7.72,128.73 7.07,124.11 6.42,119.50 4.98,113.91 3.54,108.32 2.17,101.93 0.81,95.54 -0.40,88.60 -1.62,81.66 -3.35,75.91 -5.07,70.16 -6.21,65.73 -7.34,61.29 -8.52,55.97 -9.69,50.64 -10.75,44.30 -11.81,37.97 -11.76,32.76 -11.71,27.56 -11.30,22.29 -10.89,17.01 -10.37,12.14 -9.86,7.27 -9.96,4.09 -10.07,0.91 -10.03,-0.30 -9.99,-1.52 -9.66,-2.69 -9.34,-3.86 -8.74,-4.93 -8.14,-5.99 -7.30,-6.88 -6.47,-7.76 -5.45,-8.42 -4.42,-9.09 -3.27,-9.48 -2.12,-9.88 -0.90,-9.99 0.30,-10.10 1.51,-9.92 2.71,-9.74 3.84,-9.27 4.96,-8.80 5.94,-8.08 6.93,-7.36 7.71,-6.42 8.49,-5.49 9.02,-4.39 9.55,-3.29 9.81,-2.10 10.07,-0.91 10.07,-0.91 L 10.07,-0.91 Z"></path>
    </g>
    <g transform="translate(715 14.5) rotate(0 -50.75 140.25)" stroke="none">
        <path fill="#636363" d="M 0.83,10.58 Q 0.83,10.58 -4.62,10.98 -10.09,11.38 -16.44,12.54 -22.79,13.70 -27.62,14.14 -32.45,14.58 -37.94,14.81 -43.43,15.05 -48.18,15.74 -52.92,16.44 -57.55,18.31 -62.17,20.19 -66.22,21.55 -70.26,22.90 -74.77,25.03 -79.28,27.16 -83.09,32.53 -86.90,37.90 -90.89,42.12 -94.88,46.34 -99.64,50.11 -104.40,53.87 -109.78,58.05 -115.16,62.24 -119.57,66.00 -123.98,69.76 -123.69,74.71 -123.40,79.66 -123.40,84.79 -123.40,89.92 -124.86,98.35 -126.32,106.77 -127.87,114.84 -129.43,122.90 -130.68,127.83 -131.92,132.77 -133.42,139.49 -134.92,146.21 -135.17,150.77 -135.42,155.32 -135.40,161.60 -135.37,167.87 -134.69,173.23 -134.01,178.59 -132.52,183.48 -131.04,188.37 -128.85,193.41 -126.66,198.45 -124.24,202.62 -121.81,206.78 -118.66,212.88 -115.51,218.99 -112.86,222.79 -110.22,226.60 -106.64,230.87 -103.05,235.14 -98.95,239.53 -94.86,243.93 -90.00,247.30 -85.14,250.68 -80.87,253.32 -76.61,255.97 -71.84,257.24 -67.07,258.50 -61.72,259.81 -56.38,261.12 -50.40,262.24 -44.42,263.36 -37.82,264.48 -31.21,265.61 -26.77,266.15 -22.33,266.69 -19.15,260.91 -15.97,255.13 -12.75,251.33 -9.53,247.53 -5.44,243.09 -1.35,238.65 3.77,234.33 8.90,230.00 12.95,225.10 16.99,220.20 19.50,216.69 22.00,213.19 23.46,209.01 24.92,204.83 26.56,200.77 28.21,196.71 29.56,192.33 30.92,187.95 31.96,183.80 33.01,179.65 33.04,175.25 33.08,170.84 33.03,165.42 32.99,159.99 33.37,157.68 33.75,155.36 34.85,153.29 35.95,151.21 37.65,149.60 39.35,147.98 41.49,147.00 43.62,146.01 45.95,145.76 48.28,145.51 50.58,146.01 52.87,146.52 54.88,147.73 56.89,148.94 58.41,150.73 59.93,152.52 60.80,154.70 61.67,156.88 61.79,159.22 61.92,161.57 61.29,163.83 60.66,166.09 59.34,168.03 58.03,169.98 56.16,171.40 54.29,172.82 52.06,173.57 49.84,174.31 47.49,174.31 45.14,174.31 42.92,173.56 40.69,172.81 38.83,171.39 36.96,169.97 35.64,168.03 34.32,166.08 33.70,163.82 33.07,161.56 33.20,159.21 33.33,156.87 34.20,154.69 35.07,152.51 36.59,150.72 38.11,148.93 40.12,147.72 42.13,146.51 44.42,146.01 46.72,145.51 49.05,145.76 51.38,146.02 53.51,147.00 55.64,147.99 57.35,149.60 59.05,151.22 60.15,153.29 61.25,155.37 61.63,157.69 62.00,160.00 62.00,160.00 62.00,160.00 61.99,162.78 61.97,165.57 61.88,170.37 61.78,175.17 61.40,179.69 61.03,184.22 59.90,188.67 58.77,193.12 57.17,198.70 55.57,204.29 53.55,209.60 51.53,214.91 49.56,220.09 47.60,225.27 44.08,230.11 40.56,234.95 36.69,239.89 32.82,244.82 29.75,248.00 26.68,251.17 22.46,254.79 18.23,258.41 15.21,261.65 12.18,264.90 8.92,268.69 5.66,272.48 1.73,277.30 -2.19,282.11 -7.22,286.56 -12.26,291.00 -17.96,292.60 -23.67,294.20 -27.98,293.63 -32.30,293.06 -36.61,292.32 -40.92,291.58 -45.71,290.87 -50.51,290.15 -57.15,289.01 -63.79,287.86 -68.63,286.66 -73.48,285.46 -78.76,283.74 -84.05,282.01 -89.49,279.45 -94.94,276.89 -99.51,273.95 -104.07,271.01 -109.81,266.41 -115.54,261.80 -118.96,258.09 -122.39,254.37 -127.33,248.67 -132.27,242.98 -136.04,237.40 -139.80,231.83 -142.39,226.83 -144.98,221.83 -148.70,215.35 -152.42,208.87 -154.55,203.97 -156.69,199.07 -158.43,193.52 -160.17,187.97 -161.10,182.84 -162.03,177.72 -162.31,172.73 -162.59,167.74 -162.48,163.44 -162.37,159.13 -162.08,153.60 -161.80,148.08 -160.65,141.11 -159.49,134.13 -157.99,126.41 -156.48,118.69 -155.33,109.88 -154.18,101.07 -153.38,95.47 -152.58,89.87 -152.54,84.23 -152.49,78.59 -151.65,73.88 -150.80,69.17 -150.14,63.82 -149.48,58.47 -146.51,53.86 -143.55,49.26 -139.38,45.93 -135.21,42.61 -130.10,38.89 -124.99,35.16 -119.44,30.49 -113.88,25.81 -110.75,22.44 -107.61,19.07 -103.75,15.49 -99.90,11.91 -96.29,7.55 -92.68,3.19 -87.28,0.97 -81.88,-1.23 -76.59,-2.86 -71.31,-4.50 -65.86,-5.81 -60.41,-7.12 -54.92,-7.85 -49.43,-8.57 -43.78,-8.73 -38.13,-8.90 -31.48,-8.68 -24.83,-8.47 -18.29,-9.06 -11.75,-9.66 -6.29,-10.12 -0.83,-10.58 0.44,-10.53 1.72,-10.47 2.95,-10.11 4.17,-9.76 5.28,-9.11 6.39,-8.47 7.31,-7.58 8.23,-6.69 8.91,-5.61 9.60,-4.53 10.00,-3.31 10.40,-2.10 10.50,-0.82 10.60,0.44 10.40,1.70 10.19,2.97 9.68,4.14 9.18,5.32 8.41,6.34 7.64,7.36 6.65,8.17 5.65,8.98 4.50,9.53 3.34,10.07 2.08,10.33 0.83,10.58 0.83,10.58 L 0.83,10.58 Z"></path>
    </g>
    <g transform="translate(672.5 160.5) rotate(0 56 57.75)" stroke="none">
        <path fill="#636363" d="M 7.26,-7.72 Q 7.26,-7.72 9.81,-5.53 12.36,-3.34 18.05,-2.53 23.74,-1.72 28.90,-1.92 34.05,-2.11 38.47,-2.37 42.89,-2.62 48.75,-4.28 54.60,-5.93 59.18,-7.95 63.75,-9.97 69.21,-11.94 74.67,-13.90 79.68,-15.47 84.68,-17.04 93.30,-15.12 101.91,-13.20 105.15,-7.97 108.39,-2.74 109.04,4.07 109.69,10.89 110.29,17.43 110.90,23.97 111.75,32.03 111.75,32.03 112.60,40.10 114.50,48.39 116.40,56.68 117.47,61.58 118.54,66.47 119.41,72.96 120.27,79.46 121.40,84.93 122.54,90.41 123.94,95.47 125.34,100.53 125.67,105.35 126.00,110.17 126.05,115.33 126.09,120.50 123.92,124.98 121.75,129.46 116.03,132.57 110.31,135.68 107.98,135.68 105.66,135.67 103.45,134.93 101.25,134.19 99.40,132.78 97.55,131.37 96.25,129.44 94.95,127.52 94.33,125.28 93.71,123.04 93.83,120.71 93.96,118.39 94.83,116.23 95.69,114.07 97.19,112.30 98.70,110.53 100.70,109.34 102.69,108.14 104.96,107.64 107.23,107.14 109.54,107.40 111.85,107.65 113.96,108.63 116.07,109.61 117.76,111.21 119.44,112.81 120.53,114.86 121.62,116.92 121.99,119.22 122.37,121.51 121.99,123.80 121.61,126.10 120.52,128.15 119.43,130.20 117.74,131.80 116.05,133.40 113.94,134.37 111.82,135.35 109.51,135.60 107.20,135.84 104.93,135.34 102.66,134.84 100.67,133.64 98.68,132.44 97.18,130.66 95.67,128.89 94.81,126.73 93.96,124.57 93.83,122.25 93.71,119.92 94.33,117.69 94.96,115.45 96.27,113.52 97.57,111.60 99.43,110.19 101.28,108.79 103.48,108.05 105.69,107.31 105.68,107.31 105.68,107.31 101.75,111.23 97.82,115.15 98.65,110.90 99.49,106.65 98.21,102.37 96.94,98.09 95.95,92.50 94.96,86.91 94.47,82.27 93.97,77.62 92.62,71.10 91.28,64.57 89.51,59.41 87.74,54.25 85.82,45.03 83.91,35.81 83.32,30.10 82.73,24.38 82.32,18.49 81.90,12.60 81.82,7.19 81.74,1.78 84.94,5.85 88.14,9.92 82.99,11.63 77.83,13.34 73.08,15.04 68.33,16.74 61.96,18.88 55.58,21.01 49.94,22.03 44.29,23.04 37.06,22.98 29.82,22.91 23.92,22.45 18.02,21.99 12.31,20.64 6.61,19.29 2.01,15.91 -2.58,12.54 -4.92,10.13 -7.26,7.72 -8.08,6.74 -8.90,5.75 -9.46,4.60 -10.02,3.46 -10.29,2.21 -10.56,0.96 -10.52,-0.31 -10.48,-1.59 -10.14,-2.82 -9.79,-4.05 -9.17,-5.17 -8.54,-6.28 -7.66,-7.21 -6.78,-8.14 -5.71,-8.84 -4.64,-9.53 -3.43,-9.95 -2.22,-10.36 -0.95,-10.48 0.32,-10.60 1.58,-10.40 2.84,-10.21 4.02,-9.72 5.21,-9.23 6.23,-8.47 7.26,-7.72 7.26,-7.72 L 7.26,-7.72 Z"></path>
    </g>
    <g transform="translate(807.5 10) rotate(0 9.75 83)" stroke="none">
        <path fill="#f08c00" d="M 10.68,0 Q 10.68,0 10.78,4.16 10.88,8.33 11.41,13.37 11.94,18.40 12.36,24.77 12.78,31.14 13.01,35.97 13.23,40.80 13.48,46.16 13.72,51.51 13.90,56.58 14.09,61.64 15.40,68.13 16.71,74.62 18.45,79.36 20.19,84.09 21.86,89.91 23.53,95.73 25.19,100.22 26.85,104.71 27.78,109.05 28.71,113.39 29.95,118.37 31.19,123.36 32.35,128.75 33.51,134.15 33.83,138.54 34.15,142.92 34.23,147.37 34.30,151.81 34.36,156.12 34.41,160.42 31.86,167.82 29.31,175.22 27.53,176.86 25.74,178.51 23.53,179.50 21.32,180.49 18.90,180.72 16.49,180.95 14.13,180.40 11.77,179.84 9.71,178.57 7.65,177.29 6.10,175.42 4.55,173.55 3.69,171.29 2.82,169.03 2.72,166.60 2.62,164.18 3.30,161.85 3.98,159.53 5.36,157.54 6.75,155.55 8.70,154.11 10.65,152.66 12.96,151.92 15.26,151.18 17.69,151.21 20.11,151.24 22.40,152.04 24.69,152.85 26.60,154.34 28.51,155.83 29.84,157.86 31.18,159.88 31.80,162.23 32.41,164.57 32.25,166.99 32.09,169.41 31.16,171.65 30.23,173.89 28.64,175.72 27.05,177.54 24.95,178.77 22.86,179.99 20.48,180.48 18.11,180.97 15.70,180.67 13.30,180.38 11.11,179.33 8.92,178.29 7.18,176.60 5.45,174.91 4.34,172.75 3.23,170.59 2.87,168.19 2.51,165.80 2.93,163.41 3.36,161.02 4.52,158.90 5.69,156.77 5.68,156.77 5.68,156.77 5.11,159.73 4.54,162.70 4.60,158.31 4.67,153.93 4.72,149.30 4.78,144.66 4.30,139.95 3.81,135.24 3.50,130.90 3.19,126.56 1.86,120.98 0.52,115.41 -1.07,110.31 -2.66,105.21 -3.77,100.72 -4.88,96.23 -6.60,90.77 -8.31,85.31 -9.26,79.98 -10.21,74.64 -11.15,68.23 -12.09,61.81 -11.90,56.66 -11.72,51.52 -11.49,46.21 -11.26,40.91 -11.10,36.22 -10.94,31.53 -10.86,26.22 -10.79,20.91 -10.84,14.62 -10.88,8.33 -10.78,4.16 -10.68,0 -10.52,-1.27 -10.37,-2.55 -9.91,-3.76 -9.45,-4.96 -8.72,-6.02 -7.99,-7.08 -7.03,-7.93 -6.06,-8.79 -4.92,-9.39 -3.78,-9.98 -2.53,-10.29 -1.28,-10.60 0.00,-10.60 1.28,-10.60 2.53,-10.29 3.78,-9.98 4.92,-9.38 6.06,-8.79 7.03,-7.93 7.99,-7.08 8.72,-6.02 9.45,-4.96 9.91,-3.75 10.37,-2.55 10.52,-1.27 10.68,0.00 10.68,0.00 L 10.68,0 Z"></path>
    </g>
    <g transform="translate(826 231.5) rotate(0 1 7.75)" stroke="none">
        <path fill="#f08c00" d="M 6.47,-7.65 Q 6.47,-7.65 8.47,-6.20 10.48,-4.76 13.45,-0.27 16.42,4.21 16.92,8.81 17.42,13.40 15.50,17.58 13.58,21.76 7.36,24.15 1.14,26.53 -3.17,24.60 -7.49,22.67 -8.78,21.27 -10.07,19.87 -11.21,18.93 -12.36,18.00 -13.25,16.81 -14.14,15.63 -14.72,14.26 -15.29,12.90 -15.53,11.44 -15.77,9.98 -15.65,8.50 -15.53,7.03 -15.06,5.62 -14.59,4.22 -13.79,2.97 -13.00,1.72 -11.93,0.69 -10.86,-0.32 -9.58,-1.06 -8.30,-1.80 -6.88,-2.21 -5.45,-2.62 -3.98,-2.68 -2.50,-2.74 -1.05,-2.44 0.39,-2.14 1.73,-1.51 3.07,-0.87 -2.55,-1.36 -8.18,-1.85 -6.24,-2.30 -4.31,-2.75 -2.33,-2.56 -0.35,-2.37 1.45,-1.56 3.26,-0.74 4.72,0.60 6.18,1.95 7.13,3.69 8.09,5.43 8.43,7.39 8.78,9.35 8.48,11.31 8.18,13.28 7.27,15.04 6.36,16.81 4.93,18.19 3.51,19.58 1.72,20.43 -0.07,21.29 -2.04,21.53 -4.01,21.77 -5.96,21.36 -7.90,20.96 -9.62,19.95 -11.33,18.95 -12.64,17.45 -13.94,15.95 -14.70,14.12 -15.46,12.28 -15.59,10.30 -15.72,8.31 -15.21,6.39 -14.70,4.47 -13.61,2.81 -12.51,1.16 -10.94,-0.06 -9.38,-1.28 -7.50,-1.93 -5.63,-2.59 -3.64,-2.61 -1.65,-2.64 0.23,-2.03 2.12,-1.41 3.71,-0.23 5.31,0.94 6.45,2.58 7.58,4.21 8.13,6.11 8.69,8.02 8.60,10.01 8.52,11.99 7.81,13.85 7.09,15.70 5.82,17.23 4.56,18.76 -2.75,19.32 -10.07,19.87 -11.21,18.93 -12.36,18.00 -13.25,16.81 -14.14,15.63 -14.71,14.27 -15.29,12.90 -15.53,11.44 -15.77,9.98 -15.65,8.50 -15.53,7.03 -15.06,5.63 -14.59,4.22 -13.79,2.97 -13.00,1.72 -11.93,0.70 -10.87,-0.32 -9.58,-1.06 -8.30,-1.80 -6.88,-2.21 -5.46,-2.62 -3.98,-2.68 -2.50,-2.74 -1.05,-2.44 0.39,-2.14 1.73,-1.51 3.07,-0.87 3.99,1.34 4.92,3.57 0.96,7.32 -3.00,11.08 -4.74,9.36 -6.47,7.65 -7.29,6.76 -8.11,5.88 -8.70,4.82 -9.29,3.76 -9.60,2.60 -9.92,1.43 -9.94,0.22 -9.97,-0.98 -9.71,-2.16 -9.45,-3.34 -8.91,-4.42 -8.37,-5.50 -7.59,-6.42 -6.81,-7.35 -5.83,-8.06 -4.85,-8.76 -3.73,-9.22 -2.61,-9.67 -1.42,-9.85 -0.22,-10.02 0.97,-9.90 2.17,-9.78 3.31,-9.38 4.45,-8.98 5.46,-8.31 6.47,-7.65 6.47,-7.65 L 6.47,-7.65 Z"></path>
    </g>
    <g transform="translate(10 308.5) rotate(0 409.25 -12.75)" stroke="none">
        <path fill="#e03131" d="M -0.30,-6.53 Q -0.30,-6.53 5.86,-7.09 12.03,-7.65 18.85,-8.53 25.67,-9.42 35.11,-10.92 44.54,-12.41 57.52,-14.29 70.49,-16.17 85.78,-18.35 101.07,-20.52 120.32,-22.57 139.58,-24.61 162.02,-26.46 184.46,-28.30 207.33,-29.07 230.20,-29.83 257.75,-30.14 285.30,-30.45 310.94,-30.57 336.58,-30.68 361.57,-30.73 386.56,-30.77 408.10,-30.78 429.65,-30.79 447.28,-30.79 464.92,-30.79 476.73,-30.79 488.54,-30.78 497.73,-30.78 506.91,-30.78 513.84,-31.09 520.76,-31.40 527.15,-31.72 533.55,-32.03 539.79,-32.16 546.04,-32.30 552.88,-31.94 559.72,-31.58 567.52,-30.41 575.32,-29.24 585.64,-27.21 595.95,-25.18 607.65,-23.40 619.35,-21.62 630.77,-19.03 642.18,-16.44 651.64,-14.91 661.09,-13.39 668.23,-12.54 675.37,-11.70 680.93,-11.80 686.49,-11.91 693.84,-12.68 701.20,-13.45 706.02,-13.59 710.85,-13.73 717.79,-13.54 724.73,-13.34 735.16,-12.81 745.58,-12.27 758.06,-11.87 770.55,-11.47 782.32,-11.17 794.09,-10.87 800.39,-11.09 806.69,-11.32 812.59,-11.86 818.50,-12.40 819.84,-12.18 821.18,-11.96 822.38,-11.32 823.58,-10.68 824.51,-9.70 825.45,-8.71 826.02,-7.48 826.59,-6.24 826.74,-4.89 826.88,-3.54 826.59,-2.21 826.30,-0.89 825.60,0.27 824.90,1.43 823.86,2.31 822.83,3.19 821.56,3.70 820.30,4.20 818.94,4.27 817.59,4.35 816.28,3.98 814.97,3.62 813.84,2.86 812.72,2.09 811.89,1.01 811.07,-0.06 810.64,-1.35 810.20,-2.64 810.20,-4.00 810.21,-5.36 810.64,-6.64 811.07,-7.93 811.90,-9.01 812.72,-10.09 813.84,-10.86 814.97,-11.62 816.28,-11.98 817.59,-12.35 818.95,-12.27 820.30,-12.20 821.57,-11.70 822.83,-11.19 823.86,-10.31 824.90,-9.43 825.60,-8.27 826.30,-7.10 826.59,-5.78 826.88,-4.45 826.74,-3.10 826.59,-1.75 826.02,-0.51 825.45,0.71 824.51,1.70 823.58,2.68 822.38,3.32 821.18,3.96 819.83,4.18 818.49,4.40 818.49,4.40 818.49,4.40 812.59,3.86 806.69,3.32 800.39,3.09 794.09,2.87 782.32,3.17 770.54,3.47 758.06,3.87 745.58,4.27 735.16,4.81 724.73,5.34 717.79,5.53 710.84,5.73 702.72,5.32 694.59,4.90 689.77,4.13 684.95,3.35 679.25,1.97 673.56,0.59 666.46,-0.65 659.36,-1.90 649.51,-3.29 639.66,-4.67 628.65,-6.90 617.65,-9.12 605.68,-10.55 593.70,-11.98 583.50,-13.45 573.29,-14.92 565.96,-15.89 558.62,-16.86 552.17,-17.49 545.71,-18.12 539.63,-18.54 533.55,-18.96 527.15,-19.27 520.76,-19.59 513.84,-19.90 506.92,-20.21 497.73,-20.20 488.54,-20.19 476.73,-20.18 464.93,-20.17 447.29,-20.14 429.66,-20.12 408.12,-20.08 386.58,-20.04 361.62,-19.96 336.65,-19.87 311.04,-19.70 285.43,-19.52 258.01,-19.14 230.60,-18.75 208.01,-17.89 185.42,-17.03 163.14,-15.05 140.86,-13.07 121.87,-10.85 102.87,-8.63 87.67,-6.19 72.48,-3.74 59.74,-1.50 47.00,0.72 37.19,2.81 27.38,4.90 20.03,5.70 12.69,6.50 6.49,6.52 0.30,6.53 -0.48,6.47 -1.26,6.41 -2.01,6.17 -2.76,5.92 -3.43,5.51 -4.10,5.09 -4.65,4.52 -5.20,3.96 -5.60,3.28 -6.00,2.60 -6.22,1.84 -6.45,1.08 -6.48,0.30 -6.52,-0.48 -6.37,-1.25 -6.21,-2.03 -5.88,-2.74 -5.55,-3.46 -5.05,-4.07 -4.56,-4.69 -3.93,-5.16 -3.30,-5.64 -2.58,-5.95 -1.85,-6.27 -1.08,-6.40 -0.30,-6.53 -0.30,-6.53 L -0.30,-6.53 Z"></path>
    </g>
    <g transform="translate(21 345) rotate(0 390 4)" stroke="none">
        <path fill="#e03131" d="M 1.23,-9.87 Q 1.23,-9.87 3.55,-9.77 5.88,-9.67 10.14,-9.98 14.40,-10.29 19.05,-10.75 23.69,-11.20 29.75,-11.85 35.81,-12.49 42.86,-12.93 49.91,-13.38 56.36,-14.24 62.82,-15.11 67.55,-15.77 72.28,-16.44 78.19,-17.11 84.09,-17.77 90.61,-18.08 97.12,-18.38 102.31,-18.08 107.50,-17.77 113.22,-17.49 118.94,-17.22 124.85,-17.03 130.76,-16.83 136.72,-16.69 142.68,-16.55 149.67,-16.25 156.66,-15.96 164.36,-15.19 172.05,-14.42 179.36,-13.98 186.67,-13.54 195.65,-12.70 204.62,-11.87 212.56,-11.10 220.50,-10.33 227.77,-9.64 235.05,-8.95 241.77,-8.32 248.48,-7.69 254.40,-7.56 260.32,-7.43 267.97,-7.12 275.62,-6.82 282.65,-6.51 289.68,-6.21 296.38,-6.12 303.09,-6.02 308.54,-6.19 313.98,-6.35 319.16,-6.54 319.16,-6.54 324.34,-6.73 331.14,-6.66 337.94,-6.59 345.29,-6.43 352.63,-6.27 360.21,-6.10 367.79,-5.93 375.32,-5.81 382.86,-5.69 391.09,-5.44 399.32,-5.18 409.15,-4.92 418.97,-4.66 430.77,-4.47 442.56,-4.27 452.46,-4.13 462.36,-3.99 471.02,-3.89 479.69,-3.79 488.83,-3.72 497.98,-3.64 507.76,-3.59 517.54,-3.53 526.58,-3.50 535.63,-3.46 546.08,-3.43 556.54,-3.40 566.30,-3.38 576.06,-3.36 585.24,-3.34 594.42,-3.33 603.64,-3.32 612.86,-3.31 622.25,-3.30 631.63,-3.29 640.76,-2.41 649.89,-1.53 660.16,0.15 670.42,1.84 680.36,2.52 690.30,3.20 700.22,4.37 710.14,5.55 718.32,6.41 726.50,7.27 733.71,7.43 740.93,7.59 747.71,7.50 754.50,7.40 760.90,7.06 767.31,6.72 773.66,6.18 780.02,5.65 781.51,5.90 783.00,6.15 784.34,6.86 785.67,7.57 786.71,8.67 787.74,9.77 788.37,11.14 789.01,12.52 789.16,14.02 789.32,15.53 789.00,17.00 788.67,18.48 787.88,19.77 787.10,21.06 785.95,22.04 784.79,23.01 783.39,23.57 781.98,24.13 780.47,24.20 778.96,24.28 777.50,23.87 776.05,23.47 774.80,22.61 773.55,21.76 772.64,20.56 771.73,19.35 771.25,17.92 770.77,16.48 770.77,14.97 770.78,13.46 771.26,12.03 771.75,10.60 772.67,9.39 773.59,8.19 774.84,7.35 776.09,6.50 777.55,6.10 779.01,5.70 780.52,5.79 782.03,5.87 783.43,6.44 784.83,7.00 785.98,7.98 787.13,8.97 787.91,10.26 788.69,11.56 789.01,13.04 789.33,14.52 789.16,16.02 788.99,17.52 788.35,18.89 787.71,20.26 786.67,21.36 785.63,22.45 784.29,23.15 782.95,23.86 781.46,24.10 779.97,24.34 779.97,24.34 779.97,24.34 777.60,24.25 775.22,24.17 770.27,23.25 765.32,22.33 759.75,21.21 754.19,20.09 747.25,19.67 740.30,19.24 732.80,18.61 725.29,17.98 717.09,16.99 708.90,16.00 699.24,14.86 689.57,13.71 679.15,12.98 668.72,12.25 658.79,10.61 648.86,8.98 640.24,8.13 631.62,7.29 622.24,7.30 612.86,7.31 603.64,7.32 594.42,7.33 585.24,7.34 576.06,7.36 566.30,7.38 556.54,7.40 546.08,7.43 535.63,7.46 526.58,7.50 517.54,7.53 507.76,7.59 497.98,7.64 488.83,7.72 479.69,7.79 471.02,7.89 462.36,7.99 452.46,8.13 442.56,8.27 430.77,8.47 418.97,8.66 409.15,8.92 399.32,9.18 391.09,9.44 382.86,9.69 375.32,9.81 367.79,9.93 360.20,10.09 352.62,10.26 345.27,10.41 337.91,10.56 331.08,10.60 324.26,10.65 319.03,10.41 313.80,10.17 308.28,9.88 302.75,9.59 295.83,9.39 288.91,9.19 282.14,8.81 275.36,8.43 267.45,8.48 259.53,8.53 253.18,8.04 246.83,7.56 240.24,6.75 233.64,5.94 226.51,5.26 219.38,4.59 211.68,4.19 203.98,3.79 195.11,3.89 186.23,3.99 178.60,4.06 170.97,4.13 163.80,4.03 156.63,3.93 149.62,4.21 142.60,4.49 136.59,4.59 130.57,4.68 124.53,4.77 118.50,4.86 112.34,4.90 106.18,4.94 98.15,4.60 90.12,4.26 85.30,4.07 80.48,3.88 73.34,4.21 66.20,4.55 59.15,6.00 52.09,7.46 45.62,8.43 39.15,9.40 32.34,10.73 25.52,12.05 18.78,12.07 12.04,12.08 7.68,11.45 3.31,10.82 1.04,10.35 -1.23,9.87 -2.39,9.58 -3.56,9.29 -4.62,8.73 -5.68,8.16 -6.57,7.37 -7.47,6.57 -8.14,5.58 -8.82,4.59 -9.24,3.47 -9.67,2.34 -9.81,1.15 -9.95,-0.03 -9.80,-1.22 -9.65,-2.41 -9.22,-3.53 -8.79,-4.65 -8.10,-5.64 -7.42,-6.62 -6.52,-7.41 -5.62,-8.20 -4.55,-8.76 -3.49,-9.31 -2.32,-9.59 -1.16,-9.88 0.03,-9.87 1.23,-9.87 1.23,-9.87 L 1.23,-9.87 Z"></path>
    </g>
    <g transform="translate(97.5 386) rotate(0 1 36.75)" stroke="none">
        <path fill="#1971c2" d="M 5.33,0 Q 5.33,0 5.35,2.44 5.37,4.88 5.74,8.29 6.11,11.70 6.43,14.80 6.75,17.91 6.87,21.21 6.99,24.51 7.08,27.06 7.18,29.62 7.24,32.18 7.31,34.75 7.87,37.87 8.43,41.00 8.54,43.51 8.66,46.02 8.73,48.29 8.79,50.56 8.85,53.05 8.90,55.54 8.96,57.87 9.03,60.21 9.08,62.75 9.13,65.29 9.16,67.93 9.20,70.57 8.94,72.44 8.68,74.32 8.36,75.45 8.04,76.57 7.38,77.54 6.71,78.50 5.78,79.20 4.84,79.91 3.73,80.27 2.62,80.64 1.45,80.63 0.28,80.62 -0.82,80.24 -1.92,79.86 -2.85,79.15 -3.78,78.43 -4.43,77.46 -5.08,76.49 -5.38,75.36 -5.69,74.23 -5.62,73.06 -5.55,71.89 -5.11,70.81 -4.67,69.73 -3.90,68.84 -3.14,67.95 -2.13,67.36 -1.13,66.76 0.01,66.52 1.15,66.27 2.31,66.41 3.48,66.54 4.53,67.04 5.59,67.54 6.44,68.35 7.28,69.16 7.82,70.19 8.36,71.23 8.54,72.39 8.73,73.54 8.53,74.70 8.33,75.85 7.78,76.88 7.22,77.91 6.37,78.71 5.51,79.51 4.45,79.99 3.38,80.48 2.22,80.59 1.05,80.71 -0.08,80.45 -1.22,80.19 -2.22,79.58 -3.21,78.97 -3.96,78.08 -4.72,77.18 -5.14,76.09 -5.57,75.00 -5.62,73.83 -5.68,72.66 -5.68,72.67 -5.68,72.67 -5.42,70.37 -5.17,68.08 -5.14,65.87 -5.10,63.66 -5.05,61.41 -5.00,59.15 -4.93,56.69 -4.87,54.24 -4.81,51.44 -4.76,48.64 -4.69,46.41 -4.63,44.18 -4.61,41.96 -4.59,39.74 -4.95,37.31 -5.31,34.87 -5.25,32.25 -5.18,29.64 -5.10,27.11 -5.02,24.58 -4.96,21.48 -4.90,18.39 -4.93,15.82 -4.96,13.26 -5.16,9.07 -5.37,4.88 -5.35,2.44 -5.33,0 -5.26,-0.63 -5.18,-1.27 -4.95,-1.87 -4.72,-2.48 -4.36,-3.01 -3.99,-3.54 -3.51,-3.96 -3.03,-4.39 -2.46,-4.69 -1.89,-4.99 -1.26,-5.14 -0.64,-5.30 0.00,-5.30 0.64,-5.30 1.26,-5.14 1.89,-4.99 2.46,-4.69 3.03,-4.39 3.51,-3.96 3.99,-3.54 4.36,-3.01 4.72,-2.48 4.95,-1.87 5.18,-1.27 5.26,-0.63 5.33,0.00 5.33,0.00 L 5.33,0 Z"></path>
    </g>
    <g transform="translate(92 384.5) rotate(0 23.25 41)" stroke="none">
        <path fill="#1971c2" d="M 2.16,-4.76 Q 2.16,-4.76 3.76,-4.11 5.36,-3.47 7.65,-3.41 9.93,-3.36 12.48,-3.50 15.02,-3.64 17.57,-3.77 20.11,-3.90 22.52,-3.99 24.94,-4.08 28.51,-3.31 32.07,-2.54 34.41,0.29 36.75,3.13 37.56,6.06 38.37,9.00 38.19,11.28 38.00,13.55 37.33,15.59 36.65,17.62 33.95,20.38 31.25,23.13 29.22,25.56 27.18,27.99 25.34,29.86 23.50,31.73 20.67,33.45 17.84,35.17 14.87,36.84 11.91,38.52 9.83,39.67 7.75,40.83 8.03,37.67 8.32,34.51 10.65,33.08 12.98,31.65 15.60,31.63 18.22,31.61 20.86,31.61 23.50,31.61 26.30,31.61 29.11,31.61 31.95,31.62 34.80,31.63 37.15,31.43 39.50,31.24 41.86,31.00 44.23,30.77 46.63,31.52 49.04,32.26 50.73,33.96 52.42,35.66 53.05,37.96 53.68,40.26 53.59,43.25 53.50,46.24 53.44,48.38 53.38,50.52 53.37,53.20 53.37,55.89 52.63,58.94 51.89,61.99 50.85,64.87 49.81,67.76 47.99,70.24 46.17,72.73 44.01,74.29 41.86,75.85 39.97,77.85 38.08,79.86 35.23,81.22 32.38,82.57 30.22,82.74 28.05,82.90 24.50,82.87 20.95,82.85 18.12,82.81 15.29,82.77 13.12,83.10 10.96,83.43 12.36,80.83 13.76,78.22 14.91,79.09 16.06,79.96 16.20,81.14 16.34,82.32 16.10,83.48 15.85,84.65 15.25,85.67 14.65,86.70 13.75,87.48 12.85,88.26 11.75,88.71 10.65,89.16 9.46,89.24 8.27,89.31 7.12,89.01 5.97,88.70 4.98,88.04 3.99,87.38 3.26,86.44 2.53,85.50 2.14,84.38 1.75,83.26 1.74,82.07 1.73,80.88 2.10,79.75 2.46,78.61 3.18,77.66 3.89,76.71 4.86,76.03 5.84,75.35 6.99,75.02 8.13,74.69 9.32,74.75 10.51,74.80 11.62,75.23 12.72,75.66 13.64,76.42 14.55,77.18 15.18,78.19 15.80,79.21 16.07,80.37 16.33,81.53 16.22,82.71 16.10,83.89 15.61,84.98 15.12,86.06 14.31,86.93 13.50,87.81 12.46,88.37 11.41,88.94 10.24,89.14 9.07,89.35 7.89,89.17 6.71,88.99 5.66,88.44 4.60,87.89 3.77,87.04 2.95,86.18 2.44,85.11 1.93,84.03 1.93,84.03 1.93,84.03 1.50,80.76 1.06,77.49 4.18,73.48 7.30,69.46 11.29,68.84 15.28,68.22 18.11,68.18 20.93,68.14 24.39,68.67 27.85,69.20 29.65,67.44 31.44,65.67 33.97,63.57 36.49,61.46 37.58,59.15 38.67,56.84 38.65,54.50 38.63,52.15 38.68,49.67 38.73,47.18 38.86,44.64 38.98,42.10 40.90,43.85 42.83,45.60 40.20,45.99 37.58,46.38 35.04,46.38 32.50,46.38 29.86,46.38 27.23,46.38 24.35,46.38 21.48,46.39 18.74,46.37 16.00,46.35 13.35,46.33 10.70,46.31 8.28,46.25 5.85,46.18 2.54,45.23 -0.76,44.27 -2.60,42.07 -4.43,39.87 -4.62,37.16 -4.81,34.45 -3.58,32.37 -2.36,30.29 -0.44,29.13 1.47,27.97 4.90,26.11 8.33,24.26 11.17,22.43 14.01,20.61 16.47,19.11 18.92,17.61 20.49,15.18 22.06,12.74 24.09,10.93 26.12,9.13 23.80,9.04 21.48,8.96 19.34,8.87 17.21,8.77 14.83,8.62 12.45,8.46 9.66,8.19 6.87,7.91 3.91,7.13 0.95,6.34 -0.60,5.55 -2.16,4.76 -2.70,4.43 -3.24,4.10 -3.68,3.65 -4.12,3.21 -4.45,2.66 -4.77,2.12 -4.96,1.52 -5.14,0.92 -5.18,0.29 -5.21,-0.33 -5.10,-0.95 -4.98,-1.57 -4.72,-2.14 -4.46,-2.72 -4.07,-3.21 -3.68,-3.71 -3.18,-4.09 -2.68,-4.48 -2.11,-4.74 -1.53,-4.99 -0.91,-5.11 -0.29,-5.22 0.33,-5.18 0.96,-5.14 1.56,-4.95 2.16,-4.76 2.16,-4.76 L 2.16,-4.76 Z"></path>
    </g>
    <g transform="translate(150 413.5) rotate(0 10.75 22.5)" stroke="none">
        <path fill="#1971c2" d="M 4.87,-1.95 Q 4.87,-1.95 5.53,-0.53 6.18,0.88 6.84,3.71 7.49,6.55 7.74,9.28 7.98,12.02 8.11,14.32 8.24,16.62 9.09,18.65 9.93,20.68 10.70,22.90 11.46,25.13 13.91,27.32 16.36,29.52 18.44,31.90 20.52,34.27 22.35,35.46 24.17,36.64 25.58,37.95 26.99,39.26 27.79,40.13 28.59,41.00 29.07,42.08 29.55,43.15 29.66,44.33 29.77,45.50 29.49,46.65 29.22,47.80 28.60,48.80 27.98,49.80 27.07,50.55 26.15,51.30 25.05,51.72 23.95,52.14 22.77,52.18 21.59,52.23 20.46,51.89 19.33,51.56 18.37,50.88 17.40,50.21 16.70,49.26 16.00,48.31 15.64,47.18 15.29,46.06 15.30,44.88 15.32,43.70 15.72,42.59 16.11,41.48 16.84,40.55 17.57,39.63 18.55,38.98 19.54,38.33 20.68,38.04 21.82,37.74 23.00,37.82 24.17,37.90 25.26,38.36 26.35,38.81 27.24,39.59 28.12,40.36 28.72,41.38 29.31,42.40 29.54,43.56 29.78,44.71 29.63,45.88 29.49,47.05 28.97,48.12 28.46,49.18 27.64,50.02 26.81,50.87 25.76,51.40 24.71,51.94 23.55,52.11 22.38,52.28 21.22,52.07 20.06,51.86 19.03,51.30 17.99,50.73 17.99,50.73 18.00,50.73 15.22,47.49 12.45,44.24 10.68,42.80 8.90,41.37 7.41,39.76 5.91,38.15 4.52,36.07 3.12,33.98 1.41,31.44 -0.28,28.89 -1.61,27.08 -2.94,25.27 -3.65,22.14 -4.37,19.02 -4.23,16.55 -4.10,14.07 -3.98,11.85 -3.87,9.63 -3.88,7.25 -3.88,4.86 -4.38,3.40 -4.87,1.95 -5.04,1.33 -5.20,0.72 -5.21,0.09 -5.22,-0.53 -5.08,-1.15 -4.94,-1.77 -4.66,-2.34 -4.37,-2.90 -3.96,-3.38 -3.55,-3.86 -3.03,-4.23 -2.52,-4.60 -1.93,-4.84 -1.34,-5.07 -0.72,-5.16 -0.09,-5.25 0.53,-5.18 1.16,-5.12 1.76,-4.90 2.35,-4.69 2.88,-4.34 3.41,-3.99 3.84,-3.52 4.26,-3.06 4.57,-2.50 4.87,-1.95 4.87,-1.95 L 4.87,-1.95 Z"></path>
    </g>
    <g transform="translate(191 420) rotate(0 -24.25 40.75)" stroke="none">
        <path fill="#1971c2" d="M 4.61,2.51 Q 4.61,2.51 3.81,4.13 3.01,5.74 1.60,8.20 0.20,10.66 -1.45,13.16 -3.11,15.67 -3.84,17.69 -4.57,19.71 -6.00,22.45 -7.43,25.19 -9.40,28.03 -11.38,30.87 -13.00,33.59 -14.62,36.30 -16.57,38.48 -18.52,40.66 -19.28,42.77 -20.04,44.89 -21.21,46.82 -22.37,48.75 -23.55,50.70 -24.73,52.65 -26.50,55.49 -28.28,58.33 -29.38,60.86 -30.48,63.39 -32.21,66.25 -33.93,69.11 -36.40,72.55 -38.87,76.00 -39.89,78.67 -40.91,81.35 -41.06,81.97 -41.22,82.58 -41.58,83.72 -41.94,84.85 -42.65,85.81 -43.36,86.77 -44.34,87.45 -45.31,88.13 -46.45,88.47 -47.60,88.80 -48.79,88.75 -49.98,88.70 -51.09,88.28 -52.20,87.85 -53.12,87.10 -54.04,86.34 -54.67,85.33 -55.29,84.31 -55.57,83.16 -55.84,82.00 -55.73,80.81 -55.61,79.62 -55.13,78.54 -54.64,77.45 -53.84,76.57 -53.03,75.70 -51.99,75.13 -50.94,74.55 -49.77,74.34 -48.60,74.14 -47.42,74.31 -46.24,74.49 -45.18,75.03 -44.12,75.57 -43.29,76.43 -42.46,77.28 -41.95,78.35 -41.43,79.43 -41.29,80.61 -41.14,81.79 -41.38,82.96 -41.62,84.12 -42.22,85.15 -42.82,86.18 -43.72,86.97 -44.61,87.75 -45.71,88.20 -46.81,88.66 -48.00,88.74 -49.19,88.82 -50.34,88.52 -51.49,88.22 -52.49,87.56 -53.48,86.91 -54.22,85.97 -54.95,85.03 -55.35,83.91 -55.74,82.79 -55.76,81.59 -55.77,80.40 -55.77,80.41 -55.77,80.41 -54.08,76.38 -52.38,72.35 -50.94,69.71 -49.50,67.07 -47.94,64.44 -46.37,61.81 -45.29,59.74 -44.21,57.67 -42.92,55.59 -41.63,53.51 -40.40,50.68 -39.17,47.85 -37.55,45.75 -35.93,43.65 -34.48,41.35 -33.02,39.05 -31.81,36.62 -30.60,34.19 -29.24,32.35 -27.88,30.51 -26.10,28.73 -24.31,26.96 -22.49,24.30 -20.67,21.64 -19.37,19.66 -18.07,17.68 -17.05,15.79 -16.03,13.89 -14.48,11.31 -12.93,8.72 -11.14,6.61 -9.35,4.49 -7.90,2.53 -6.46,0.57 -5.53,-0.97 -4.61,-2.51 -4.24,-3.03 -3.87,-3.54 -3.39,-3.95 -2.91,-4.37 -2.34,-4.65 -1.78,-4.94 -1.16,-5.08 -0.54,-5.22 0.08,-5.21 0.71,-5.20 1.32,-5.04 1.94,-4.88 2.49,-4.57 3.05,-4.27 3.52,-3.84 3.98,-3.41 4.33,-2.89 4.69,-2.36 4.90,-1.77 5.12,-1.17 5.18,-0.54 5.25,0.08 5.16,0.71 5.07,1.33 4.84,1.92 4.61,2.51 4.61,2.51 L 4.61,2.51 Z"></path>
    </g>
    <g transform="translate(317 376.5) rotate(0 -30.5 65)" stroke="none">
        <path fill="#2f9e44" d="M 0,10.15 Q 0,10.15 -2.58,10.34 -5.17,10.52 -10.94,9.45 -16.72,8.37 -21.31,8.82 -25.91,9.27 -30.68,9.55 -35.45,9.82 -41.17,12.08 -46.88,14.34 -49.53,18.12 -52.17,21.91 -54.57,26.52 -56.97,31.13 -57.06,37.06 -57.14,42.99 -58.65,49.28 -60.17,55.58 -59.54,60.08 -58.91,64.59 -58.86,69.28 -58.81,73.98 -58.77,78.59 -58.73,83.20 -58.69,87.71 -58.65,92.22 -56.86,96.91 -55.06,101.60 -51.89,104.63 -48.71,107.65 -51.83,104.41 -54.96,101.16 -51.35,103.56 -47.74,105.97 -42.39,110.54 -37.05,115.11 -31.18,115.93 -25.30,116.74 -20.46,118.74 -15.63,120.73 -10.65,119.09 -5.66,117.46 -0.90,115.41 3.85,113.37 0.61,117.12 -2.62,120.88 -2.46,125.03 -2.29,129.19 -3.08,126.79 -3.86,124.40 -3.85,121.89 -3.83,119.37 -3.01,116.99 -2.19,114.61 -0.65,112.62 0.88,110.63 2.97,109.23 5.06,107.83 7.49,107.17 9.92,106.52 12.43,106.67 14.95,106.83 17.28,107.77 19.61,108.72 21.52,110.37 23.42,112.01 24.70,114.17 25.99,116.34 26.51,118.80 27.03,121.26 26.74,123.76 26.45,126.26 25.38,128.54 24.31,130.82 22.56,132.63 20.82,134.45 18.59,135.61 16.36,136.77 13.87,137.16 11.38,137.55 8.90,137.13 6.42,136.70 4.21,135.51 1.99,134.31 0.27,132.47 -1.43,130.63 -2.47,128.34 -3.51,126.05 -3.77,123.54 -4.02,121.04 -3.46,118.59 -2.90,116.13 -1.59,113.99 -0.28,111.84 1.64,110.22 3.57,108.61 5.92,107.69 8.26,106.78 10.78,106.66 13.29,106.54 15.71,107.23 18.13,107.92 20.20,109.35 22.27,110.78 23.78,112.79 25.29,114.81 25.29,114.81 25.29,114.80 26.34,121.89 27.38,128.97 23.31,134.56 19.25,140.14 15.59,142.53 11.93,144.92 3.90,146.73 -4.12,148.53 -9.01,148.54 -13.90,148.54 -18.58,148.47 -23.26,148.40 -28.46,147.44 -33.65,146.47 -37.86,144.60 -42.06,142.73 -46.85,140.92 -51.63,139.11 -57.23,135.14 -62.82,131.16 -58.62,133.84 -54.42,136.52 -60.10,132.51 -65.79,128.49 -69.77,125.77 -73.76,123.06 -78.46,118.05 -83.17,113.04 -85.48,108.05 -87.79,103.07 -88.56,97.12 -89.33,91.16 -89.29,86.64 -89.25,82.11 -89.21,77.36 -89.17,72.60 -89.12,67.64 -89.07,62.68 -89.00,58.04 -88.93,53.41 -88.28,48.57 -87.63,43.73 -86.39,39.48 -85.15,35.24 -84.44,30.36 -83.72,25.48 -82.10,21.37 -80.48,17.27 -78.34,12.77 -76.20,8.28 -73.08,4.04 -69.96,-0.18 -66.25,-3.44 -62.53,-6.69 -57.88,-9.76 -53.23,-12.83 -48.87,-14.31 -44.51,-15.79 -39.98,-15.81 -35.44,-15.82 -30.57,-15.53 -25.69,-15.24 -20.51,-14.31 -15.32,-13.38 -10.25,-11.95 -5.17,-10.52 -2.58,-10.34 0,-10.15 1.21,-10.00 2.43,-9.85 3.57,-9.42 4.71,-8.99 5.72,-8.29 6.73,-7.60 7.54,-6.68 8.35,-5.76 8.92,-4.68 9.49,-3.60 9.78,-2.41 10.08,-1.22 10.08,0.00 10.08,1.22 9.78,2.41 9.49,3.60 8.92,4.68 8.35,5.76 7.54,6.68 6.73,7.60 5.72,8.29 4.71,8.99 3.57,9.42 2.42,9.85 1.21,10.00 -0.00,10.15 -0.00,10.15 L 0,10.15 Z"></path>
    </g>
    <g transform="translate(368.5 378.5) rotate(0 8.75 66)" stroke="none">
        <path fill="#2f9e44" d="M 9.28,4.42 Q 9.28,4.42 8.00,7.51 6.71,10.60 5.24,15.32 3.76,20.04 2.50,25.67 1.23,31.30 1.65,36.43 2.07,41.56 1.78,46.54 1.48,51.53 1.14,56.86 0.81,62.18 0.18,66.87 -0.44,71.56 -0.36,76.42 -0.28,81.28 -0.22,85.74 -0.16,90.21 -0.08,94.58 -0.01,98.96 2.71,103.90 5.43,108.84 9.72,111.86 14.01,114.89 18.31,116.04 22.60,117.18 27.56,117.36 32.53,117.53 33.28,117.58 34.02,117.62 36.35,118.33 38.67,119.04 40.64,120.46 42.61,121.88 44.03,123.85 45.45,125.83 46.16,128.15 46.87,130.47 46.81,132.90 46.74,135.33 45.90,137.61 45.06,139.89 43.54,141.78 42.02,143.67 39.97,144.98 37.93,146.29 35.57,146.87 33.21,147.46 30.79,147.26 28.37,147.07 26.14,146.10 23.91,145.14 22.10,143.52 20.29,141.90 19.10,139.78 17.90,137.67 17.44,135.28 16.99,132.90 17.31,130.49 17.64,128.08 18.72,125.91 19.80,123.73 21.52,122.01 23.24,120.30 25.42,119.22 27.59,118.14 30.00,117.81 32.41,117.49 34.79,117.94 37.18,118.40 39.29,119.60 41.41,120.80 43.03,122.60 44.65,124.41 45.61,126.64 46.57,128.88 46.76,131.30 46.96,133.72 46.37,136.08 45.79,138.43 44.48,140.48 43.17,142.53 41.27,144.05 39.38,145.57 37.10,146.41 34.82,147.24 32.39,147.31 29.96,147.37 29.96,147.37 29.97,147.37 28.10,146.91 26.23,146.44 21.16,146.16 16.10,145.89 11.42,144.55 6.75,143.21 2.47,141.66 -1.80,140.12 -5.62,137.66 -9.45,135.20 -14.11,130.48 -18.76,125.76 -21.47,122.14 -24.18,118.51 -25.99,114.10 -27.80,109.68 -28.39,104.32 -28.98,98.96 -28.91,94.58 -28.83,90.20 -28.76,85.68 -28.69,81.16 -28.55,76.38 -28.40,71.60 -27.48,66.16 -26.57,60.72 -25.92,54.50 -25.27,48.28 -24.60,43.46 -23.94,38.63 -23.57,34.36 -23.20,30.09 -21.59,24.88 -19.99,19.67 -18.25,14.86 -16.51,10.05 -14.49,5.76 -12.46,1.46 -10.87,-1.47 -9.28,-4.42 -8.61,-5.46 -7.95,-6.51 -7.06,-7.37 -6.16,-8.22 -5.09,-8.84 -4.01,-9.46 -2.82,-9.80 -1.63,-10.15 -0.39,-10.19 0.84,-10.24 2.05,-9.99 3.26,-9.74 4.38,-9.21 5.50,-8.68 6.46,-7.89 7.42,-7.11 8.16,-6.11 8.91,-5.12 9.39,-3.98 9.88,-2.84 10.07,-1.62 10.27,-0.39 10.17,0.83 10.07,2.07 9.67,3.24 9.28,4.42 9.28,4.42 L 9.28,4.42 Z"></path>
    </g>
    <g transform="translate(461 440) rotate(0 -9.5 26.5)" stroke="none">
        <path fill="#2f9e44" d="M -3.08,9.78 Q -3.08,9.78 -5.87,9.09 -8.65,8.40 -13.79,7.83 -18.92,7.27 -24.00,11.77 -29.08,16.27 -29.76,21.22 -30.44,26.17 -30.35,30.42 -30.27,34.68 -26.53,37.12 -22.79,39.56 -17.14,41.80 -11.50,44.04 -6.47,43.12 -1.44,42.21 2.57,36.22 6.59,30.23 9.12,25.34 11.64,20.46 14.06,24.17 16.48,27.89 12.76,24.12 9.04,20.35 7.95,18.13 6.86,15.91 6.54,13.46 6.22,11.00 6.70,8.58 7.18,6.15 8.41,4.01 9.63,1.86 11.48,0.22 13.33,-1.41 15.61,-2.38 17.88,-3.34 20.35,-3.53 22.81,-3.72 25.21,-3.11 27.60,-2.50 29.68,-1.16 31.76,0.17 33.30,2.11 34.84,4.04 35.68,6.37 36.52,8.69 36.57,11.16 36.63,13.64 35.89,16.00 35.15,18.35 33.70,20.36 32.24,22.36 30.23,23.79 28.21,25.22 25.85,25.93 23.48,26.65 21.01,26.57 18.54,26.49 16.22,25.62 13.91,24.76 11.99,23.20 10.07,21.64 8.75,19.55 7.43,17.46 6.84,15.06 6.26,12.66 6.47,10.19 6.69,7.73 7.67,5.46 8.66,3.20 10.32,1.37 11.98,-0.46 14.14,-1.66 16.30,-2.87 18.73,-3.32 21.16,-3.77 23.61,-3.43 26.06,-3.08 28.27,-1.97 30.48,-0.86 32.21,0.89 33.95,2.65 33.95,2.64 33.95,2.64 35.42,5.43 36.88,8.22 38.71,15.46 40.54,22.70 39.24,28.57 37.93,34.43 35.69,38.86 33.44,43.28 30.29,48.92 27.14,54.55 24.26,58.07 21.38,61.59 17.86,64.30 14.34,67.02 7.84,69.61 1.33,72.20 -3.89,72.37 -9.13,72.54 -13.47,72.43 -17.81,72.31 -22.31,71.16 -26.81,70.01 -31.38,67.86 -35.95,65.71 -39.93,63.03 -43.91,60.35 -47.21,57.41 -50.51,54.47 -53.37,51.05 -56.22,47.64 -57.51,43.05 -58.80,38.46 -58.66,33.72 -58.53,28.98 -57.62,24.07 -56.72,19.15 -54.77,14.13 -52.82,9.11 -50.67,4.27 -48.53,-0.56 -45.03,-4.10 -41.53,-7.63 -38.13,-10.27 -34.73,-12.91 -27.82,-14.63 -20.92,-16.36 -15.80,-15.71 -10.68,-15.06 -6.47,-13.45 -2.26,-11.85 0.40,-10.81 3.08,-9.78 4.21,-9.27 5.34,-8.75 6.31,-7.99 7.28,-7.22 8.04,-6.24 8.79,-5.27 9.30,-4.14 9.80,-3.01 10.02,-1.79 10.24,-0.58 10.16,0.65 10.08,1.88 9.71,3.06 9.33,4.24 8.69,5.30 8.05,6.35 7.17,7.22 6.29,8.09 5.23,8.73 4.17,9.37 2.99,9.73 1.80,10.09 0.57,10.16 -0.65,10.23 -1.87,10.00 -3.09,9.78 -3.08,9.78 L -3.08,9.78 Z"></path>
    </g>
    <g transform="translate(501 495) rotate(0 -4.75 -13.75)" stroke="none">
        <path fill="#2f9e44" d="M -8.88,4.44 Q -8.88,4.44 -10.21,2.22 -11.54,0.01 -13.75,-3.77 -15.97,-7.56 -16.74,-11.75 -17.50,-15.93 -18.78,-18.52 -20.05,-21.10 -20.79,-22.95 -21.54,-24.80 -21.65,-26.80 -21.76,-28.79 -21.24,-30.71 -20.71,-32.64 -19.59,-34.30 -18.48,-35.95 -16.89,-37.16 -15.31,-38.38 -13.42,-39.02 -11.53,-39.66 -9.53,-39.67 -7.54,-39.68 -5.64,-39.04 -3.75,-38.41 -2.16,-37.21 -0.56,-36.01 0.55,-34.36 1.68,-32.71 2.22,-30.79 2.76,-28.87 2.65,-26.87 2.55,-24.88 1.82,-23.02 1.09,-21.17 -0.19,-19.64 -1.48,-18.12 -3.19,-17.08 -4.89,-16.05 -6.84,-15.61 -8.79,-15.18 -10.77,-15.39 -12.76,-15.60 -14.57,-16.43 -16.39,-17.26 -17.84,-18.63 -19.29,-20.00 -20.23,-21.76 -21.17,-23.52 -21.50,-25.49 -21.83,-27.46 -21.52,-29.43 -21.20,-31.40 -20.27,-33.17 -19.34,-34.93 -17.89,-36.31 -16.45,-37.69 -14.64,-38.53 -12.83,-39.37 -10.85,-39.59 -8.86,-39.82 -6.91,-39.39 -4.96,-38.97 -3.25,-37.95 -1.54,-36.92 -0.24,-35.40 1.05,-33.89 1.05,-33.89 1.05,-33.89 2.00,-32.21 2.95,-30.53 2.93,-24.26 2.91,-17.99 4.92,-13.60 6.94,-9.21 7.91,-6.82 8.88,-4.44 9.28,-3.31 9.69,-2.18 9.81,-0.99 9.93,0.19 9.76,1.38 9.59,2.56 9.15,3.67 8.70,4.78 8.00,5.76 7.30,6.73 6.39,7.50 5.48,8.28 4.41,8.82 3.33,9.35 2.17,9.62 1.00,9.88 -0.19,9.86 -1.39,9.83 -2.54,9.52 -3.70,9.21 -4.75,8.64 -5.80,8.06 -6.68,7.25 -7.56,6.44 -8.22,5.44 -8.88,4.44 -8.88,4.44 L -8.88,4.44 Z"></path>
    </g>
    <g transform="translate(530 443) rotate(0 31.25 33.25)" stroke="none">
        <path fill="#2f9e44" d="M 10.05,-1.25 Q 10.05,-1.25 10.66,2.17 11.26,5.59 12.36,10.59 13.46,15.59 15.20,20.51 16.94,25.42 17.33,30.19 17.71,34.97 17.07,39.67 16.43,44.37 14.77,49.35 13.11,54.33 12.08,59.31 11.06,64.29 6.18,58.49 1.30,52.68 -3.41,53.40 -8.14,54.12 -4.08,47.85 -0.02,41.58 -2.54,45.03 -5.06,48.48 -3.85,43.85 -2.65,39.23 -0.83,32.93 0.99,26.64 3.21,22.07 5.44,17.49 6.72,13.27 7.99,9.05 13.33,3.97 18.66,-1.09 24.44,-4.21 30.21,-7.34 34.21,-9.45 38.20,-11.57 43.92,-12.89 49.64,-14.21 53.95,-13.78 58.25,-13.34 63.52,-12.10 68.79,-10.87 71.07,-9.88 73.34,-8.88 75.18,-7.21 77.02,-5.54 78.23,-3.37 79.44,-1.20 79.89,1.23 80.34,3.67 79.99,6.13 79.64,8.59 78.53,10.81 77.41,13.03 75.64,14.77 73.88,16.52 71.64,17.61 69.41,18.70 66.95,19.02 64.49,19.34 62.05,18.86 59.61,18.37 57.46,17.14 55.30,15.90 53.66,14.04 52.01,12.18 51.04,9.90 50.07,7.61 49.89,5.13 49.70,2.65 50.32,0.25 50.93,-2.15 52.28,-4.23 53.63,-6.32 55.58,-7.86 57.52,-9.41 59.86,-10.25 62.20,-11.09 64.68,-11.14 67.16,-11.19 69.53,-10.45 71.90,-9.71 73.91,-8.24 75.92,-6.78 77.35,-4.76 78.79,-2.73 79.51,-0.35 80.22,2.02 80.14,4.50 80.05,6.98 79.18,9.31 78.31,11.63 76.74,13.56 75.18,15.49 73.07,16.81 70.97,18.14 68.56,18.72 66.14,19.30 63.67,19.09 61.20,18.87 61.20,18.87 61.20,18.87 58.21,15.52 55.23,12.17 50.27,15.11 45.31,18.04 40.04,20.77 34.77,23.49 32.57,28.18 30.36,32.87 28.62,37.08 26.87,41.28 25.44,45.77 24.00,50.25 22.41,54.64 20.82,59.03 19.04,63.53 17.27,68.02 12.31,73.00 7.35,77.99 1.51,79.01 -4.33,80.04 -8.14,77.71 -11.95,75.39 -14.15,68.39 -16.36,61.39 -15.09,56.26 -13.83,51.13 -11.82,46.33 -9.81,41.52 -7.76,36.53 -5.71,31.54 -7.25,24.21 -8.80,16.88 -9.17,12.54 -9.54,8.20 -9.79,4.72 -10.05,1.25 -10.05,0.03 -10.06,-1.18 -9.77,-2.37 -9.48,-3.55 -8.92,-4.64 -8.35,-5.72 -7.55,-6.64 -6.74,-7.56 -5.74,-8.25 -4.74,-8.95 -3.59,-9.39 -2.45,-9.82 -1.24,-9.98 -0.03,-10.13 1.17,-9.98 2.39,-9.84 3.53,-9.41 4.67,-8.98 5.68,-8.29 6.69,-7.60 7.50,-6.69 8.31,-5.78 8.89,-4.70 9.46,-3.62 9.75,-2.44 10.05,-1.25 10.05,-1.25 L 10.05,-1.25 Z"></path>
    </g>
    <g transform="translate(631.5 377.5) rotate(0 -8.25 78.5)" stroke="none">
        <path fill="#2f9e44" d="M 10.06,0 Q 10.06,0 10.24,2.15 10.42,4.31 10.48,8.73 10.54,13.15 9.85,17.91 9.17,22.66 8.95,27.21 8.73,31.76 8.99,36.35 9.24,40.95 9.45,45.46 9.65,49.97 8.24,56.64 6.83,63.31 6.25,68.60 5.66,73.89 4.97,78.67 4.29,83.45 2.84,89.45 1.39,95.44 1.65,100.37 1.91,105.29 0.91,111.58 -0.08,117.88 0.27,122.65 0.63,127.43 0.09,134.27 -0.45,141.12 -1.18,147.88 -1.91,154.64 -1.54,156.32 -1.17,158.01 -1.57,160.46 -1.98,162.90 -3.14,165.09 -4.31,167.28 -6.11,168.99 -7.91,170.69 -10.16,171.73 -12.41,172.77 -14.88,173.03 -17.34,173.30 -19.76,172.76 -22.18,172.22 -24.31,170.94 -26.43,169.66 -28.03,167.77 -29.64,165.88 -30.55,163.58 -31.47,161.27 -31.60,158.80 -31.73,156.32 -31.06,153.93 -30.40,151.54 -29.00,149.49 -27.61,147.44 -25.63,145.94 -23.66,144.45 -21.31,143.66 -18.96,142.87 -16.48,142.87 -14.00,142.88 -11.65,143.67 -9.30,144.46 -7.33,145.97 -5.36,147.47 -3.97,149.52 -2.58,151.58 -1.92,153.97 -1.26,156.36 -1.40,158.83 -1.53,161.31 -2.45,163.61 -3.37,165.91 -4.98,167.80 -6.59,169.69 -8.72,170.96 -10.84,172.24 -13.26,172.77 -15.69,173.30 -18.15,173.03 -20.62,172.76 -22.86,171.71 -25.11,170.67 -26.91,168.96 -28.71,167.25 -29.87,165.06 -31.02,162.87 -31.42,160.42 -31.82,157.97 -31.82,157.98 -31.82,157.98 -31.80,155.69 -31.78,153.40 -31.25,148.73 -30.71,144.06 -30.18,139.43 -29.66,134.80 -29.64,130.39 -29.62,125.97 -29.54,121.49 -29.47,117.01 -28.69,111.86 -27.91,106.71 -27.68,102.10 -27.45,97.49 -26.88,92.94 -26.31,88.39 -25.09,82.75 -23.87,77.10 -23.10,72.91 -22.33,68.72 -21.34,64.26 -20.34,59.79 -19.00,54.88 -17.65,49.97 -17.45,45.46 -17.24,40.95 -16.99,36.33 -16.73,31.72 -16.28,27.17 -15.84,22.62 -13.82,18.24 -11.81,13.85 -11.12,9.08 -10.42,4.31 -10.24,2.15 -10.06,0 -9.91,-1.20 -9.77,-2.40 -9.33,-3.54 -8.90,-4.67 -8.22,-5.67 -7.53,-6.67 -6.62,-7.47 -5.71,-8.28 -4.64,-8.84 -3.56,-9.40 -2.39,-9.69 -1.21,-9.98 0.00,-9.98 1.21,-9.98 2.39,-9.69 3.56,-9.40 4.64,-8.84 5.71,-8.28 6.62,-7.47 7.53,-6.67 8.22,-5.67 8.91,-4.67 9.34,-3.54 9.77,-2.40 9.91,-1.20 10.06,0.00 10.06,0.00 L 10.06,0 Z"></path>
    </g>
    <g transform="translate(692.5 439.5) rotate(0 -26 44.5)" stroke="none">
        <path fill="#2f9e44" d="M 0,10.60 Q 0,10.60 -3.01,10.76 -6.03,10.92 -11.27,12.67 -16.52,14.43 -20.51,17.24 -24.49,20.05 -28.02,23.82 -31.54,27.60 -35.94,31.56 -40.33,35.51 -44.32,38.32 -48.31,41.14 -52.41,44.51 -56.51,47.89 -53.67,44.10 -50.83,40.31 -52.26,35.47 -53.68,30.63 -48.64,33.04 -43.61,35.44 -37.54,38.84 -31.47,42.24 -26.28,44.41 -21.10,46.59 -15.48,49.21 -9.86,51.83 -5.63,54.79 -1.40,57.76 1.85,60.73 5.11,63.70 8.99,67.09 12.86,70.49 17.94,75.17 23.03,79.85 22.29,78.25 21.56,76.66 23.31,78.35 25.05,80.04 26.17,82.20 27.28,84.36 27.65,86.76 28.01,89.16 27.59,91.55 27.17,93.95 26.01,96.08 24.85,98.22 23.07,99.87 21.29,101.52 19.07,102.52 16.85,103.51 14.43,103.75 12.02,103.98 9.65,103.43 7.28,102.89 5.21,101.61 3.14,100.33 1.59,98.46 0.04,96.59 -0.82,94.33 -1.70,92.06 -1.80,89.63 -1.91,87.20 -1.23,84.87 -0.56,82.54 0.82,80.54 2.21,78.54 4.16,77.10 6.11,75.65 8.42,74.90 10.73,74.15 13.16,74.17 15.59,74.20 17.89,75.00 20.18,75.80 22.10,77.30 24.01,78.79 25.36,80.82 26.70,82.84 27.32,85.19 27.94,87.54 27.79,89.96 27.63,92.39 26.70,94.64 25.78,96.88 24.18,98.72 22.59,100.55 20.49,101.78 18.40,103.01 16.02,103.51 13.64,104.00 11.23,103.71 8.81,103.42 6.62,102.38 4.43,101.33 4.43,101.33 4.43,101.33 1.15,97.76 -2.13,94.18 -6.91,91.00 -11.70,87.83 -15.88,84.16 -20.07,80.50 -24.25,77.42 -28.42,74.34 -32.36,72.55 -36.31,70.76 -42.18,67.84 -48.05,64.92 -54.06,61.70 -60.07,58.48 -64.76,55.97 -69.46,53.45 -72.63,50.20 -75.81,46.95 -76.83,41.40 -77.85,35.85 -75.84,32.09 -73.83,28.33 -69.40,24.31 -64.97,20.29 -59.16,16.35 -53.35,12.40 -49.90,9.02 -46.44,5.63 -42.67,2.67 -38.90,-0.29 -34.85,-2.59 -30.80,-4.90 -25.21,-6.65 -19.62,-8.41 -12.83,-9.66 -6.04,-10.92 -3.02,-10.76 0,-10.60 1.26,-10.44 2.53,-10.29 3.73,-9.84 4.92,-9.38 5.97,-8.66 7.03,-7.93 7.87,-6.98 8.72,-6.02 9.32,-4.89 9.91,-3.75 10.22,-2.51 10.52,-1.27 10.52,0.00 10.52,1.27 10.22,2.51 9.91,3.76 9.32,4.89 8.72,6.02 7.87,6.98 7.03,7.93 5.97,8.66 4.92,9.38 3.73,9.84 2.53,10.29 1.26,10.45 -0.00,10.60 -0.00,10.60 L 0,10.60 Z"></path>
    </g>
</svg>